<svg width="177" height="18" fill="none" xmlns="http://www.w3.org/2000/svg"><path d="M3.87 10.76h6.54V7.24H3.87V3.52h7.99V0H0v17.6h3.87v-6.84ZM13.18 11v6.6h3.63V11a3.64 3.64 0 0 1 3.63-3.66V4h-.48c-4.02 0-6.78 3.13-6.78 7ZM28.56 4.01a7.13 7.13 0 0 0-7.26 7c0 3.86 3.24 6.99 7.26 6.99 3.2 0 5.9-1.98 6.87-4.74h-4.02a3.6 3.6 0 0 1-6.26-.98H35.7c.07-.42.12-.83.12-1.27 0-3.87-3.25-7-7.26-7Zm-3.41 5.72a3.66 3.66 0 0 1 3.4-2.4c1.56 0 2.89 1.01 3.42 2.4h-6.82ZM43.75 9.83c-1.4-.17-3-.78-3-1.56 0-.88.74-1.18 1.54-1.18s1.55.3 1.55 1.42h3.63c0-2.84-2.37-4.5-5.18-4.5-2.8 0-5.17 1.66-5.17 4.35 0 2.08 2.44 3.65 4.98 3.97 1.09.14 1.89.7 1.89 1.32 0 .85-.9 1.27-1.7 1.27-.8 0-1.7-.3-1.7-1.42h-3.62c0 2.84 2.52 4.5 5.32 4.5 2.81 0 5.33-1.66 5.33-4.5 0-2.23-1.96-3.45-3.87-3.67ZM56.28 4.01c-1.2 0-2.3.44-3.14 1.17V0H49.5v17.6h3.63v-6.62c0-2 1.13-3.64 3.14-3.64 2.01 0 3.15 1.64 3.15 3.67v6.6h3.63V11c0-3.87-2.76-7-6.78-7ZM72.02 4.01c-4.02 0-6.78 3.13-6.78 7v6.6h3.63V11c0-2.03 1.14-3.67 3.15-3.67 2 0 3.14 1.64 3.14 3.67v6.6h3.63V11c0-3.87-2.76-7-6.77-7ZM87.63 4.01a7.13 7.13 0 0 0-7.25 7c0 3.86 3.24 6.99 7.25 6.99 3.2 0 5.9-1.98 6.88-4.74h-4.02a3.6 3.6 0 0 1-6.27-.98h10.55c.08-.42.12-.83.12-1.27 0-3.87-3.24-7-7.26-7Zm-3.4 5.72a3.66 3.66 0 0 1 3.4-2.4c1.55 0 2.88 1.01 3.42 2.4h-6.83ZM102.82 9.83c-1.4-.17-3-.78-3-1.56 0-.88.75-1.18 1.55-1.18s1.55.3 1.55 1.42h3.63c0-2.84-2.37-4.5-5.18-4.5-2.8 0-5.18 1.66-5.18 4.35 0 2.08 2.45 3.65 4.99 3.97 1.09.14 1.88.7 1.88 1.32 0 .85-.9 1.27-1.69 1.27-.8 0-1.7-.3-1.7-1.42h-3.62c0 2.84 2.51 4.5 5.32 4.5 2.8 0 5.32-1.66 5.32-4.5 0-2.23-1.96-3.45-3.87-3.67ZM115.12 4.01a7.12 7.12 0 0 0-7.26 7c0 3.86 3.24 6.99 7.26 6.99 3.2 0 5.9-1.98 6.87-4.74h-4.02a3.6 3.6 0 0 1-6.27-.98h10.56c.07-.42.12-.83.12-1.27 0-3.87-3.25-7-7.26-7Zm-3.42 5.72a3.66 3.66 0 0 1 3.42-2.4c1.55 0 2.88 1.01 3.4 2.4h-6.81ZM130.6 7.34c1.4 0 2.59.78 3.21 1.95h3.83a7.23 7.23 0 0 0-7.04-5.28 7.13 7.13 0 0 0-7.26 7c0 3.86 3.24 6.99 7.26 6.99a7.2 7.2 0 0 0 6.99-5.18h-3.9a3.52 3.52 0 0 1-3.1 1.85c-2 0-3.62-1.63-3.62-3.66a3.64 3.64 0 0 1 3.63-3.67ZM152.93 11c0-3.86-3.22-6.99-7.21-6.99a7.1 7.1 0 0 0-7.21 7c0 3.86 3.22 6.99 7.2 6.99 4 0 7.22-3.13 7.22-7Zm-3.63 0c0 2.04-1.6 3.67-3.58 3.67a3.62 3.62 0 0 1-3.58-3.66c0-2.03 1.6-3.67 3.58-3.67A3.62 3.62 0 0 1 149.3 11ZM170.47 4.01c-1.9 0-3.59.86-4.72 2.23A6.11 6.11 0 0 0 161.03 4c-4.02 0-6.53 3.13-6.53 7v6.6h3.63V11c0-2.03.9-3.67 2.9-3.67s2.9 1.64 2.9 3.67v6.6h3.63V11c0-2.03.9-3.67 2.9-3.67 2.01 0 2.91 1.64 2.91 3.67v6.6H177V11c0-3.87-2.52-7-6.53-7Z" fill="#151515"/></svg>